<?xml version="1.0" standalone="no"?><!DOCTYPE svg PUBLIC "-//W3C//DTD SVG 1.1//EN" "http://www.w3.org/Graphics/SVG/1.1/DTD/svg11.dtd"><svg t="1773328721101" class="icon" viewBox="0 0 1024 1024" version="1.1" xmlns="http://www.w3.org/2000/svg" p-id="5812" width="64" height="64" xmlns:xlink="http://www.w3.org/1999/xlink"><path d="M512 428.8l256-256c25.6-25.6 64-25.6 83.2 0 25.6 25.6 25.6 64 0 83.2l-256 256 256 256c25.6 25.6 25.6 64 0 83.2-25.6 25.6-64 25.6-83.2 0l-256-256-256 256c-25.6 25.6-64 25.6-83.2 0-25.6-25.6-25.6-64 0-83.2l256-256-256-256c-25.6-25.6-25.6-64 0-83.2 25.6-25.6 64-25.6 83.2 0l256 256z" fill="#6c63b5" p-id="5813"></path></svg>